<?xml version="1.0" standalone="no"?>
<!DOCTYPE svg PUBLIC "-//W3C//DTD SVG 20010904//EN"
 "http://www.w3.org/TR/2001/REC-SVG-20010904/DTD/svg10.dtd">
<svg version="1.0" xmlns="http://www.w3.org/2000/svg"
 width="500.000000pt" height="500.000000pt" viewBox="0 0 500.000000 500.000000"
 preserveAspectRatio="xMidYMid meet">
<metadata>
Created by potrace 1.11, written by Peter Selinger 2001-2013
</metadata>
<g transform="translate(0.000000,500.000000) scale(0.100000,-0.100000)"
fill="#000000" stroke="none">
<path d="M669 4568 c-1 -7 -3 -24 -5 -38 -7 -42 -6 -172 0 -236 13 -141 64
-301 147 -467 16 -32 24 -55 19 -52 -13 8 -100 166 -215 390 -53 105 -113 218
-133 253 -36 63 -64 82 -57 40 2 -13 6 -50 10 -82 15 -128 94 -375 166 -519
30 -59 133 -220 180 -281 46 -59 0 -18 -78 69 -104 117 -180 221 -293 400 -51
80 -97 148 -102 151 -13 8 -5 -60 17 -147 22 -84 90 -227 153 -321 80 -119
273 -308 386 -377 20 -13 35 -25 32 -28 -7 -7 -241 133 -309 185 -33 25 -116
100 -185 168 -70 68 -130 124 -134 124 -9 0 6 -48 30 -97 68 -133 351 -409
549 -537 35 -22 61 -42 58 -44 -2 -2 -65 29 -140 69 -133 72 -264 163 -379
263 -65 57 -96 80 -96 71 0 -40 92 -176 184 -273 115 -121 224 -196 416 -288
63 -30 142 -68 175 -84 60 -31 60 -31 20 -25 -167 22 -308 82 -520 223 -71 48
-135 91 -142 95 -55 34 57 -138 151 -233 79 -79 171 -132 316 -181 111 -37 99
-33 228 -60 98 -21 138 -40 70 -33 -137 13 -139 13 -218 34 -62 16 -114 33
-193 65 -37 15 -70 26 -72 23 -8 -8 66 -112 104 -146 83 -76 191 -121 356
-148 6 -1 49 -2 98 -3 53 -1 87 -5 87 -12 0 -14 -194 -10 -296 6 -43 7 -80 12
-81 11 -5 -4 76 -85 117 -118 74 -59 147 -90 223 -96 80 -6 121 8 222 73 60
38 233 122 269 130 6 1 19 5 29 8 35 14 50 17 100 24 107 14 209 3 352 -37 91
-25 143 -39 170 -45 69 -16 103 -31 129 -59 167 -176 230 -338 175 -448 -39
-76 -160 -135 -349 -169 -94 -16 -110 -18 -260 -25 l-136 -7 -149 46 c-258 79
-273 85 -378 143 -160 89 -214 129 -330 247 l-108 110 5 -49 c10 -80 17 -106
47 -165 51 -103 175 -214 322 -290 26 -13 47 -28 47 -32 0 -18 -255 127 -298
170 -21 21 -21 17 -2 -46 57 -190 169 -300 309 -305 48 -2 78 -13 216 -82 139
-69 199 -97 290 -134 66 -27 204 -68 250 -75 17 -3 55 -8 85 -13 87 -13 298
-6 398 12 49 9 211 64 252 84 l35 18 90 -46 c100 -52 154 -69 235 -75 64 -4
110 -22 110 -42 0 -7 -11 -32 -26 -54 -31 -50 -14 -42 66 31 30 27 63 51 73
51 9 1 20 2 25 3 17 5 122 16 185 19 58 4 73 9 97 32 16 15 40 28 54 28 29 0
35 12 10 21 -30 12 -101 6 -180 -15 -43 -11 -90 -23 -104 -25 -14 -3 -34 -7
-45 -10 -16 -4 -15 -1 8 20 34 32 129 60 214 65 6 1 19 9 29 19 11 10 40 19
73 23 l56 5 -30 13 c-18 8 -70 13 -128 13 -81 1 -95 3 -86 14 6 8 20 14 30 14
11 0 19 4 19 9 0 14 -70 1 -138 -26 -46 -19 -83 -44 -134 -93 -83 -79 -97 -78
-124 3 -11 33 -32 64 -67 97 -64 62 -66 86 -9 161 55 73 99 165 121 252 26
103 26 315 0 422 -55 227 -207 403 -417 483 -71 28 -282 88 -342 98 -14 3 -33
7 -42 10 -9 3 -25 7 -37 9 -110 21 -345 99 -416 139 -127 69 -143 192 -41 313
32 38 115 78 201 96 69 14 250 16 324 3 46 -7 122 -45 215 -106 92 -60 120
-75 168 -88 51 -14 57 1 16 39 l-33 31 48 -27 c26 -15 47 -24 47 -20 0 43 -59
197 -80 210 -6 4 -10 28 -9 55 2 40 -4 60 -32 106 -55 91 -109 119 -249 128
-106 7 -242 104 -354 255 -97 129 -117 123 -57 -18 16 -39 28 -71 25 -71 -5 0
-84 84 -129 138 -33 39 -39 37 -23 -9 18 -53 76 -139 127 -188 45 -42 45 -43
6 -13 -22 16 -71 55 -110 86 -62 50 -70 54 -73 35 -5 -28 91 -135 165 -185 32
-21 63 -42 68 -47 20 -18 -132 62 -182 96 -47 32 -53 34 -53 16 0 -27 74 -94
133 -122 54 -25 59 -34 20 -31 -57 3 -171 -28 -260 -72 -202 -97 -346 -303
-352 -503 -1 -36 -4 -67 -5 -69 -9 -8 -199 194 -262 278 -192 256 -319 507
-369 732 -2 9 -13 50 -24 90 -18 65 -34 135 -47 208 -2 14 -9 54 -15 90 -15
82 -26 105 -43 90 -27 -22 -46 -183 -48 -407 -1 -73 -3 -133 -4 -133 -10 0
-86 195 -99 252 -2 9 -18 62 -35 117 -18 55 -32 104 -32 108 0 12 -38 83 -43
83 -3 0 -6 -6 -6 -12z"/>
<path d="M2160 2484 c0 -5 20 -28 43 -51 23 -23 57 -67 76 -97 110 -182 90
-355 -59 -516 -27 -30 -50 -56 -50 -58 0 -1 15 -1 33 2 17 3 57 8 87 11 61 6
102 12 140 21 14 3 36 8 49 10 13 3 39 11 57 19 19 8 34 12 34 9 0 -15 126 65
148 94 61 79 18 218 -113 374 -43 50 -75 80 -93 84 -84 19 -329 88 -339 97 -7
5 -13 6 -13 1z"/>
<path d="M4134 1464 c-72 -25 -160 -99 -156 -131 4 -26 14 -29 34 -10 33 31
127 86 166 98 38 11 48 10 77 -5 40 -22 66 -16 58 13 -11 44 -101 62 -179 35z"/>
<path d="M4106 1354 c-74 -50 -85 -64 -79 -101 5 -29 11 -34 82 -59 42 -16
111 -45 154 -66 43 -21 80 -38 83 -38 3 0 18 -9 34 -20 l27 -19 106 109 c58
60 103 111 99 114 -4 2 -36 12 -72 21 -36 9 -78 20 -95 26 -34 10 -283 70
-287 68 -2 -1 -25 -16 -52 -35z"/>
<path d="M3890 1250 c-6 -10 -29 -25 -53 -31 -23 -6 -36 -14 -29 -16 8 -3 -1
-20 -27 -49 -39 -45 -93 -144 -107 -199 -14 -53 -15 -68 -19 -165 -3 -77 0
-107 17 -158 23 -68 79 -138 103 -128 23 8 18 29 -20 94 -47 78 -66 168 -50
236 32 134 77 237 130 293 11 12 26 29 33 38 15 18 38 14 137 -27 175 -73 323
-146 405 -200 63 -41 115 -131 122 -209 2 -23 9 -44 16 -47 9 -3 12 20 12 88
l0 91 -52 56 c-48 49 -217 173 -238 173 -8 0 -78 31 -217 96 -28 13 -58 24
-65 24 -8 0 -6 5 5 11 13 8 15 14 7 30 -15 27 -95 27 -110 -1z"/>
<path d="M4581 1116 l-104 -104 37 -39 c20 -21 47 -60 60 -87 l23 -48 69 82
69 83 -20 103 c-12 57 -23 106 -26 108 -3 3 -52 -41 -108 -98z"/>
<path d="M3644 1199 c-3 -5 -23 -9 -44 -9 -33 0 -50 -9 -115 -65 -76 -64 -76
-64 -48 -71 15 -4 65 -22 111 -41 95 -38 102 -39 102 -17 0 17 48 110 82 157
11 15 19 30 17 31 -11 10 -100 22 -105 15z"/>
<path d="M3858 1113 c-37 -40 -77 -116 -80 -153 -3 -31 -1 -32 92 -72 52 -22
129 -53 171 -68 l76 -29 39 31 c22 17 65 56 96 87 44 42 55 58 46 68 -6 7 -14
13 -18 13 -5 0 -48 19 -97 41 -92 44 -265 109 -287 109 -7 0 -24 -12 -38 -27z"/>
<path d="M3405 937 c11 -56 12 -61 18 -87 3 -14 11 -50 17 -81 l11 -56 69 -27
c74 -29 118 -28 104 2 -5 10 -8 59 -9 111 l0 93 -108 39 -108 39 6 -33z"/>
<path d="M4339 883 c-19 -21 -62 -63 -96 -94 l-61 -56 19 -42 c19 -44 48 -125
54 -151 10 -46 18 -70 24 -70 6 0 166 193 208 251 19 26 -11 102 -61 155 -23
24 -44 44 -47 44 -3 0 -21 -17 -40 -37z"/>
<path d="M3746 806 c10 -101 15 -120 48 -190 34 -74 50 -87 121 -102 6 -1 54
-18 109 -38 93 -34 166 -46 166 -28 0 18 -40 129 -69 193 -27 60 -34 68 -73
82 -24 8 -102 40 -175 70 l-132 55 5 -42z"/>
</g>
</svg>
